<?xml version="1.0" encoding="UTF-8" standalone="no"?>
<!-- Created with Inkscape (http://www.inkscape.org/) -->

<svg
   xmlns:dc="http://purl.org/dc/elements/1.1/"
   xmlns:cc="http://creativecommons.org/ns#"
   xmlns:rdf="http://www.w3.org/1999/02/22-rdf-syntax-ns#"
   xmlns:svg="http://www.w3.org/2000/svg"
   xmlns="http://www.w3.org/2000/svg"
   xmlns:xlink="http://www.w3.org/1999/xlink"
   xmlns:sodipodi="http://sodipodi.sourceforge.net/DTD/sodipodi-0.dtd"
   xmlns:inkscape="http://www.inkscape.org/namespaces/inkscape"
   version="1.1"
   width="768"
   height="640"
   id="svg2"
   inkscape:version="0.48.3.1 r9886"
   sodipodi:docname="crosshairs.svg">
  <sodipodi:namedview
     pagecolor="#000000"
     bordercolor="#666666"
     borderopacity="1"
     objecttolerance="10"
     gridtolerance="10"
     guidetolerance="10"
     inkscape:pageopacity="1"
     inkscape:pageshadow="2"
     inkscape:window-width="955"
     inkscape:window-height="724"
     id="namedview97"
     showgrid="true"
     inkscape:zoom="0.47712828"
     inkscape:cx="401.89627"
     inkscape:cy="375.6868"
     inkscape:window-x="0"
     inkscape:window-y="0"
     inkscape:window-maximized="0"
     inkscape:current-layer="svg2">
    <inkscape:grid
       type="xygrid"
       id="grid3074"
       empspacing="4"
       visible="true"
       enabled="true"
       snapvisiblegridlinesonly="true"
       color="#b4b4b4"
       opacity="0.11764706"
       empcolor="#b4b4b4"
       empopacity="0.19607843"
       spacingy="8px"
       spacingx="8px" />
  </sodipodi:namedview>
  <defs
     id="defs4" />
  <metadata
     id="metadata7">
    <rdf:RDF>
      <cc:Work
         rdf:about="">
        <dc:format>image/svg+xml</dc:format>
        <dc:type
           rdf:resource="http://purl.org/dc/dcmitype/StillImage" />
        <dc:title />
      </cc:Work>
    </rdf:RDF>
  </metadata>
  <g
     style="fill:#ffffff"
     id="circle_thin_4"
     transform="translate(0,-412.36218)">
    <use
       xlink:href="#rect3178"
       height="640"
       width="640"
       y="0"
       x="0"
       style="fill:#ffffff"
       id="use3107"
       transform="translate(128,924.36218)" />
    <path
       inkscape:connector-curvature="0"
       style="fill:#ffffff;fill-opacity:1;stroke:none"
       id="path2987"
       transform="translate(0,412.36218)"
       d="m 64,512 c -35.346223,0 -64,28.65378 -64,64 0,35.34622 28.653777,64 64,64 35.346223,0 64,-28.65378 64,-64 0,-35.34622 -28.653777,-64 -64,-64 z m 0,8 c 30.927946,0 56,25.07205 56,56 0,30.92795 -25.072054,56 -56,56 C 33.072054,632 8,606.92795 8,576 8,545.07205 33.072054,520 64,520 z" />
  </g>
  <g
     style="fill:#ffffff"
     id="circle_thin_1"
     transform="translate(0,-412.36218)">
    <use
       xlink:href="#rect3178"
       height="640"
       width="640"
       y="0"
       x="0"
       style="fill:#ffffff"
       id="use3137"
       transform="translate(512,924.36218)" />
    <path
       inkscape:connector-curvature="0"
       style="fill:#ffffff;fill-opacity:1;stroke:none"
       id="path2993"
       transform="translate(0,412.36218)"
       d="m 448,560 c -8.83656,0 -16,7.16344 -16,16 0,8.83656 7.16344,16 16,16 8.83656,0 16,-7.16344 16,-16 0,-8.83656 -7.16344,-16 -16,-16 z m 0,8 c 4.41828,0 8,3.58172 8,8 0,4.41828 -3.58172,8 -8,8 -4.41828,0 -8,-3.58172 -8,-8 0,-4.41828 3.58172,-8 8,-8 z" />
  </g>
  <g
     style="fill:#ffffff"
     id="circle_thin_3"
     transform="translate(0,-412.36218)">
    <use
       xlink:href="#rect3178"
       height="640"
       width="640"
       y="0"
       x="0"
       style="fill:#ffffff"
       id="use3117"
       transform="translate(256,924.36218)" />
    <path
       inkscape:connector-curvature="0"
       style="fill:#ffffff;fill-opacity:1;stroke:none"
       id="path2997"
       transform="translate(0,412.36218)"
       d="m 192,528 c -26.50967,0 -48,21.49033 -48,48 0,26.50967 21.49033,48 48,48 26.50967,0 48,-21.49033 48,-48 0,-26.50967 -21.49033,-48 -48,-48 z m 0,8 c 22.09139,0 40,17.90861 40,40 0,22.09139 -17.90861,40 -40,40 -22.09139,0 -40,-17.90861 -40,-40 0,-22.09139 17.90861,-40 40,-40 z" />
  </g>
  <g
     style="fill:#ffffff"
     id="circle_thin_2"
     transform="translate(0,-412.36218)">
    <use
       xlink:href="#rect3178"
       height="640"
       width="640"
       y="0"
       x="0"
       style="fill:#ffffff"
       id="use3127"
       transform="translate(384,924.36218)" />
    <path
       inkscape:connector-curvature="0"
       style="fill:#ffffff;fill-opacity:1;stroke:none"
       id="path3007"
       transform="translate(0,412.36218)"
       d="m 320,544 c -17.67311,0 -32,14.32689 -32,32 0,17.67311 14.32689,32 32,32 17.67311,0 32,-14.32689 32,-32 0,-17.67311 -14.32689,-32 -32,-32 z m 0,8 c 13.25483,0 24,10.74517 24,24 0,13.25483 -10.74517,24 -24,24 -13.25483,0 -24,-10.74517 -24,-24 0,-13.25483 10.74517,-24 24,-24 z" />
  </g>
  <g
     style="fill:#ffffff"
     id="dot"
     transform="translate(0,-412.36217)">
    <use
       xlink:href="#rect3178"
       height="640"
       width="640"
       y="0"
       x="0"
       style="fill:#ffffff"
       id="use3097"
       transform="translate(640,924.36217)" />
    <path
       inkscape:connector-curvature="0"
       style="fill:#ffffff;fill-opacity:1;stroke:none"
       id="path3015"
       transform="matrix(0.17391304,0,0,0.21052636,568,861.62531)"
       d="m 92,602 a 46,38 0 1 1 -92,0 46,38 0 1 1 92,0 z" />
  </g>
  <g
     style="fill:#ffffff"
     id="nail_plus"
     transform="translate(0,-412.36218)">
    <use
       xlink:href="#rect3178"
       height="640"
       width="640"
       y="0"
       x="0"
       style="fill:#ffffff"
       id="use3129"
       transform="translate(512,412.36218)" />
    <path
       inkscape:connector-curvature="0"
       style="fill:#ffffff;fill-opacity:1;stroke:none"
       id="rect3021"
       transform="translate(0,412.36218)"
       d="m 432,0 8,8 0,24 8,16 8,-16 0,-24 8,-8 -32,0 z m -48,48 0,32 8,-8 24,0 16,-8 -16,-8 -24,0 -8,-8 z m 128,0 -8,8 -24,0 -16,8 16,8 24,0 8,8 0,-32 z m -64,32 -8,16 0,24 -8,8 32,0 -8,-8 0,-24 -8,-16 z" />
  </g>
  <g
     style="fill:#ffffff"
     id="nail_cross_wide"
     transform="translate(0,-412.36218)">
    <use
       xlink:href="#rect3178"
       height="640"
       width="640"
       y="0"
       x="0"
       style="fill:#ffffff"
       id="use3133"
       transform="translate(512,668.36218)" />
    <path
       inkscape:connector-curvature="0"
       style="fill:#ffffff;fill-opacity:1;stroke:none"
       id="path3070"
       transform="translate(0,412.36218)"
       d="m 408,256 -24,24 12,0 16,16 20,8 -8,-20 -16,-16 0,-12 z m 80,0 0,12 -16,16 -8,20 20,-8 16,-16 12,0 -24,-24 z m -56,80 -20,8 -16,16 -12,0 24,24 0,-12 16,-16 8,-20 z m 32,0 8,20 16,16 0,12 24,-24 -12,0 -16,-16 -20,-8 z" />
  </g>
  <g
     style="fill:#ffffff"
     id="tri_u"
     transform="translate(-256,-412.36218)">
    <use
       xlink:href="#rect3178"
       height="640"
       width="640"
       y="0"
       x="0"
       style="fill:#ffffff"
       id="use3119"
       transform="translate(384,412.36218)" />
    <path
       inkscape:connector-curvature="0"
       style="fill:#ffffff;fill-opacity:1;stroke:none"
       id="path3098"
       transform="translate(0,412.36218)"
       d="m 312,0 0,40 16,0 0,-40 -16,0 z m -16.78125,69.0625 -34.65625,20 8,13.875 34.65625,-20 -8,-13.875 z m 49.5625,0 -8,13.875 34.65625,20 8,-13.875 -34.65625,-20 z" />
  </g>
  <g
     style="fill:#ffffff"
     id="tri_narrow"
     transform="translate(-256,-412.36218)">
    <use
       xlink:href="#rect3178"
       height="640"
       width="640"
       y="0"
       x="0"
       style="fill:#ffffff"
       id="use3121"
       transform="translate(384,540.36218)" />
    <path
       inkscape:connector-curvature="0"
       style="fill:#ffffff;fill-opacity:1;stroke:none"
       id="path3118"
       transform="translate(0,412.36218)"
       d="m 312,128 0,40 16,0 0,-40 -16,0 z m -14.625,75.3125 -28.28125,28.28125 11.3125,11.3125 L 308.6875,214.625 297.375,203.3125 z m 45.25,0 -11.3125,11.3125 28.28125,28.28125 11.3125,-11.3125 L 342.625,203.3125 z" />
  </g>
  <g
     style="fill:#ffffff"
     id="tri_d"
     transform="translate(-256,-412.36218)">
    <use
       xlink:href="#rect3178"
       height="640"
       width="640"
       y="0"
       x="0"
       style="fill:#ffffff"
       id="use3123"
       transform="translate(384,668.36218)" />
    <path
       inkscape:connector-curvature="0"
       style="fill:#ffffff;fill-opacity:1;stroke:none"
       id="path3128"
       transform="translate(0,412.36218)"
       d="m 268.5625,281.0625 -8,13.875 34.65625,20 8,-13.875 -34.65625,-20 z m 102.875,0 -34.65625,20 8,13.875 34.65625,-20 -8,-13.875 z M 312,344 l 0,40 16,0 0,-40 -16,0 z" />
  </g>
  <g
     style="fill:#ffffff"
     id="nail_cross"
     transform="translate(0,-412.36218)">
    <use
       xlink:href="#rect3178"
       height="640"
       width="640"
       y="0"
       x="0"
       style="fill:#ffffff"
       id="use3131"
       transform="translate(512,540.36218)" />
    <path
       inkscape:connector-curvature="0"
       style="fill:#ffffff;fill-opacity:1;stroke:none"
       id="path3148"
       transform="translate(0,412.36218)"
       d="m 414.0625,135.4375 -22.625,22.625 11.3125,0 16.96875,16.96875 16.96875,5.65625 -5.65625,-16.96875 -16.96875,-16.96875 0,-11.3125 z m 67.875,0 0,11.3125 -16.96875,16.96875 -5.65625,16.96875 16.96875,-5.65625 16.96875,-16.96875 11.3125,0 -22.625,-22.625 z m -45.25,67.875 -16.96875,5.65625 -16.96875,16.96875 -11.3125,0 22.625,22.625 0,-11.3125 16.96875,-16.96875 5.65625,-16.96875 z m 22.625,0 5.65625,16.96875 16.96875,16.96875 0,11.3125 22.625,-22.625 -11.3125,0 -16.96875,-16.96875 -16.96875,-5.65625 z" />
  </g>
  <g
     style="fill:#ffffff"
     id="tube_v"
     transform="matrix(0,1,-1,0,796.36218,256)">
    <use
       xlink:href="#rect3178"
       height="640"
       width="640"
       y="0"
       x="0"
       style="fill:#ffffff"
       id="use3101"
       transform="translate(128,540.36218)" />
    <path
       inkscape:connector-curvature="0"
       style="fill:#ffffff;fill-opacity:1;stroke:none"
       id="path3164"
       transform="translate(0,412.36218)"
       d="m 32,160 c -20,0 -32,16 -32,32 0,16 12,32 32,32 -8,-4 -16,-16 -16,-32 0,-16 8,-28 16,-32 z m 64,0 c 8,4 16,16 16,32 0,16 -8,28 -16,32 20,0 32,-16 32,-32 0,-16 -12,-32 -32,-32 z" />
  </g>
  <rect
     style="opacity:0.50000000000000000;fill:#666666;fill-opacity:1;stroke:none"
     id="rect3178"
     y="2.6171874e-06"
     x="-128"
     height="128"
     width="128" />
  <g
     style="fill:#ffffff"
     id="circle_plus"
     transform="translate(640,-412.36218)">
    <use
       xlink:href="#rect3178"
       height="640"
       width="640"
       y="0"
       x="0"
       style="fill:#ffffff"
       id="use3089"
       transform="translate(128,412.36218)" />
    <path
       inkscape:connector-curvature="0"
       style="fill:#ffffff;fill-opacity:1;stroke:none"
       id="path3180"
       transform="translate(0,412.36218)"
       d="M 56,0.53125 C 27.059544,4.1454055 4.1454054,27.059544 0.53125,56 L 16.6875,56 C 20.059492,35.899543 35.899546,20.059493 56,16.6875 L 56,0.53125 z m 16,0 0,16.15625 C 92.100454,20.059493 107.94051,35.899543 111.3125,56 l 16.15625,0 C 123.85459,27.059544 100.94046,4.1454055 72,0.53125 z M 0.53125,72 C 4.1454054,100.94046 27.059544,123.85459 56,127.46875 L 56,111.3125 C 35.899546,107.94051 20.059492,92.100457 16.6875,72 L 0.53125,72 z M 111.3125,72 C 107.94051,92.100457 92.100454,107.94051 72,111.3125 l 0,16.15625 C 100.94046,123.85459 123.85459,100.94046 127.46875,72 l -16.15625,0 z" />
  </g>
  <g
     style="fill:#ffffff"
     id="circle_cross"
     transform="translate(512,-284.36218)">
    <use
       xlink:href="#rect3178"
       height="640"
       width="640"
       y="0"
       x="0"
       style="fill:#ffffff"
       id="use3109"
       transform="translate(256,412.36218)" />
  </g>
  <g
     style="fill:#ffffff"
     id="plus"
     transform="translate(-256,-412.36218)">
    <use
       xlink:href="#rect3178"
       height="640"
       width="640"
       y="0"
       x="0"
       style="fill:#ffffff"
       id="use3099"
       transform="translate(640,412.36218)" />
    <path
       inkscape:connector-curvature="0"
       style="fill:#ffffff;fill-opacity:1;stroke:none"
       id="path3235"
       transform="translate(0,412.36218)"
       d="m 568,0 0,40 16,0 0,-40 -16,0 z m -56,56 0,16 40,0 0,-16 -40,0 z m 88,0 0,16 40,0 0,-16 -40,0 z m -32,32 0,40 16,0 0,-40 -16,0 z" />
  </g>
  <g
     style="fill:#ffffff"
     id="tube_h"
     transform="translate(128,-412.36218)">
    <use
       xlink:href="#rect3178"
       height="640"
       width="640"
       y="0"
       x="0"
       style="fill:#ffffff"
       id="use3300"
       transform="translate(128,540.36218)" />
    <path
       inkscape:connector-curvature="0"
       style="fill:#ffffff;fill-opacity:1;stroke:none"
       id="path3302"
       transform="translate(0,412.36218)"
       d="m 32,160 c -20,0 -32,16 -32,32 0,16 12,32 32,32 -8,-4 -16,-16 -16,-32 0,-16 8,-28 16,-32 z m 64,0 c 8,4 16,16 16,32 0,16 -8,28 -16,32 20,0 32,-16 32,-32 0,-16 -12,-32 -32,-32 z" />
  </g>
  <g
     style="fill:#ffffff"
     id="cross"
     transform="translate(-256,-412.36218)">
    <use
       xlink:href="#rect3178"
       height="640"
       width="640"
       y="0"
       x="0"
       style="fill:#ffffff"
       id="use3091"
       transform="translate(640,540.36218)" />
    <path
       inkscape:connector-curvature="0"
       style="fill:#ffffff;fill-opacity:1;stroke:none"
       id="path3251"
       d="m 553.37258,593.04847 -28.28427,-28.28427 11.31371,-11.31371 28.28427,28.28427 z m 62.2254,62.2254 -28.28427,-28.28427 11.31371,-11.31371 28.28427,28.28427 z m -90.50967,-11.31371 28.28427,-28.28427 11.31371,11.31371 -28.28427,28.28427 z m 62.2254,-62.2254 28.28427,-28.28427 11.31371,11.31371 -28.28427,28.28427 z" />
  </g>
  <path
     inkscape:connector-curvature="0"
     style="fill:#ffffff;fill-opacity:1;stroke:none"
     id="path3080"
     d="m 704,128 c -14.61377,0 -28.07005,4.9123 -38.84375,13.15625 l 11.4375,11.4375 C 684.36516,147.17835 693.80969,144 704,144 c 10.19031,0 19.63484,3.17835 27.40625,8.59375 l 11.4375,-11.4375 C 732.07005,132.9123 718.61377,128 704,128 z m -50.84375,25.15625 C 644.9123,163.92995 640,177.38623 640,192 c 0,14.61377 4.9123,28.07005 13.15625,38.84375 l 11.4375,-11.4375 C 659.17835,211.63484 656,202.19031 656,192 c 0,-10.19031 3.17835,-19.63484 8.59375,-27.40625 l -11.4375,-11.4375 z m 101.6875,0 -11.4375,11.4375 C 748.82165,172.36516 752,181.80969 752,192 c 0,10.19031 -3.17835,19.63484 -8.59375,27.40625 l 11.4375,11.4375 C 763.0877,220.07005 768,206.61377 768,192 c 0,-14.61377 -4.9123,-28.07005 -13.15625,-38.84375 z m -78.25,78.25 -11.4375,11.4375 C 675.92995,251.0877 689.38623,256 704,256 c 14.61377,0 28.07005,-4.9123 38.84375,-13.15625 l -11.4375,-11.4375 C 723.63484,236.82165 714.19031,240 704,240 c -10.19031,0 -19.63484,-3.17835 -27.40625,-8.59375 z" />
  <g
     style="fill:#ffffff"
     id="cross_wide"
     transform="translate(32,-412.36218)">
    <use
       xlink:href="#rect3178"
       height="640"
       width="640"
       y="0"
       x="0"
       style="fill:#ffffff"
       id="use3093"
       transform="translate(352,668.36218)" />
    <path
       inkscape:connector-curvature="0"
       style="fill:#ffffff;fill-opacity:1;stroke:none"
       id="path3256"
       d="m 264,720.36219 -40,-40 12,-12 40,40 z m 76,76 -40,-40 12,-12 40,40 z m -116,-12 40,-40 12,12 -40,40 z m 76,-76 40,-40 12,12 -40,40 z" />
  </g>
  <g
     style="fill:#ffffff"
     id="circle_4"
     transform="translate(0,-412.36218)">
    <use
       xlink:href="#rect3178"
       height="640"
       width="640"
       y="0"
       x="0"
       style="fill:#ffffff"
       id="use3105"
       transform="translate(128,796.36218)" />
    <path
       inkscape:connector-curvature="0"
       style="fill:#ffffff;fill-opacity:1;stroke:none"
       id="path3260"
       transform="translate(0,412.36218)"
       d="m 64,384 c -35.346223,0 -64,28.65378 -64,64 0,35.34622 28.653777,64 64,64 35.346223,0 64,-28.65378 64,-64 0,-35.34622 -28.653777,-64 -64,-64 z m 0,16 c 26.509669,0 48,21.49033 48,48 0,26.50967 -21.490331,48 -48,48 -26.509669,0 -48,-21.49033 -48,-48 0,-26.50967 21.490331,-48 48,-48 z" />
  </g>
  <g
     style="fill:#ffffff"
     id="circle_1"
     transform="translate(0,-412.36218)">
    <use
       xlink:href="#rect3178"
       height="640"
       width="640"
       y="0"
       x="0"
       style="fill:#ffffff"
       id="use3135"
       transform="translate(512,796.36218)" />
    <path
       inkscape:connector-curvature="0"
       style="fill:#ffffff;fill-opacity:1;stroke:none"
       id="path3264"
       transform="matrix(0.34782609,0,0,0.42105262,432,606.88852)"
       d="m 92,602 a 46,38 0 1 1 -92,0 46,38 0 1 1 92,0 z" />
  </g>
  <g
     style="fill:#ffffff"
     id="circle_3"
     transform="translate(0,-412.36218)">
    <use
       xlink:href="#rect3178"
       height="640"
       width="640"
       y="0"
       x="0"
       style="fill:#ffffff"
       id="use3115"
       transform="translate(256,796.36218)" />
    <path
       inkscape:connector-curvature="0"
       style="fill:#ffffff;fill-opacity:1;stroke:none"
       id="path3268"
       transform="translate(0,412.36218)"
       d="m 192,400 c -26.50967,0 -48,21.49033 -48,48 0,26.50967 21.49033,48 48,48 26.50967,0 48,-21.49033 48,-48 0,-26.50967 -21.49033,-48 -48,-48 z m 0,16 c 17.67311,0 32,14.32689 32,32 0,17.67311 -14.32689,32 -32,32 -17.67311,0 -32,-14.32689 -32,-32 0,-17.67311 14.32689,-32 32,-32 z" />
  </g>
  <g
     style="fill:#ffffff"
     id="circle_2"
     transform="translate(0,-412.36218)">
    <use
       xlink:href="#rect3178"
       height="640"
       width="640"
       y="0"
       x="0"
       style="fill:#ffffff"
       id="use3125"
       transform="translate(384,796.36218)" />
    <path
       inkscape:connector-curvature="0"
       style="fill:#ffffff;fill-opacity:1;stroke:none"
       id="path3278"
       transform="translate(0,412.36218)"
       d="m 320,416 c -17.67311,0 -32,14.32689 -32,32 0,17.67311 14.32689,32 32,32 17.67311,0 32,-14.32689 32,-32 0,-17.67311 -14.32689,-32 -32,-32 z m 0,16 c 8.83656,0 16,7.16344 16,16 0,8.83656 -7.16344,16 -16,16 -8.83656,0 -16,-7.16344 -16,-16 0,-8.83656 7.16344,-16 16,-16 z" />
  </g>
  <g
     style="fill:#ffffff"
     id="circle_lr"
     transform="translate(512,-284.36218)">
    <use
       xlink:href="#rect3178"
       height="640"
       width="640"
       y="0"
       x="0"
       style="fill:#ffffff"
       id="use3111"
       transform="translate(256,540.36218)" />
    <path
       inkscape:connector-curvature="0"
       style="fill:#ffffff;fill-opacity:1;stroke:none"
       id="path3296"
       transform="translate(0,412.36218)"
       d="m 141.4375,152.75 c -17.9084,23.01959 -17.9084,55.41791 0,78.4375 L 152.84375,219.75 c -11.82881,-16.59753 -11.82882,-38.99622 0,-55.59375 L 141.4375,152.75 z m 101.0625,0 -11.40625,11.40625 c 11.82881,16.59753 11.82882,38.99622 0,55.59375 L 242.5,231.1875 c 17.9084,-23.01959 17.9084,-55.41791 0,-78.4375 z" />
  </g>
  <g
     style="fill:#ffffff"
     id="square_plus"
     transform="translate(512,-668.36218)">
    <use
       xlink:href="#rect3178"
       height="640"
       width="640"
       y="0"
       x="0"
       style="fill:#ffffff"
       id="use3103"
       transform="translate(128,668.36218)" />
    <path
       inkscape:connector-curvature="0"
       style="fill:#ffffff;fill-opacity:1;stroke:none"
       id="path3304"
       transform="translate(0,412.36218)"
       d="m 0,256 0,48 16,0 0,-32 32,0 0,-16 -48,0 z m 80,0 0,16 32,0 0,32 16,0 0,-48 -48,0 z m -80,80 0,48 48,0 0,-16 -32,0 0,-32 -16,0 z m 112,0 0,32 -32,0 0,16 48,0 0,-48 -16,0 z" />
  </g>
  <g
     style="fill:#ffffff"
     id="square"
     transform="translate(384,-412.36218)">
    <use
       xlink:href="#rect3178"
       height="640"
       width="640"
       y="0"
       x="0"
       style="fill:#ffffff"
       id="use3113"
       transform="translate(256,668.36218)" />
    <path
       inkscape:connector-curvature="0"
       style="fill:#ffffff;fill-opacity:1;stroke:none"
       id="path3319"
       transform="translate(0,412.36218)"
       d="m 144,272 0,96 96,0 0,-96 z m 16,16 64,0 0,64 -64,0 z" />
  </g>
  <g
     style="fill:#ffffff"
     id="dot_square"
     transform="translate(0,-412.36217)">
    <use
       xlink:href="#rect3178"
       height="640"
       width="640"
       y="0"
       x="0"
       style="fill:#ffffff"
       id="use3095"
       transform="translate(640,796.36217)" />
    <rect
       style="fill:#ffffff;fill-opacity:1;stroke:none"
       id="rect3139"
       transform="translate(0,412.36218)"
       y="440"
       x="568"
       ry="4"
       rx="4"
       height="16"
       width="16" />
  </g>
  <g
     style="fill:#ffffff"
     id="square_cross"
     transform="translate(160,-284.36218)">
    <use
       xlink:href="#rect3178"
       height="640"
       width="640"
       y="0"
       x="0"
       style="fill:#ffffff"
       id="use3243"
       transform="translate(480,412.36218)" />
    <path
       inkscape:connector-curvature="0"
       style="fill:#ffffff;fill-opacity:1;stroke:none"
       id="path3273"
       transform="translate(0,412.36218)"
       d="m 364,0 16,16 72,0 16,-16 -104,0 z m -12,12 0,104 16,-16 0,-72 -16,-16 z m 128,0 -16,16 0,72 16,16 0,-104 z m -100,100 -16,16 104,0 -16,-16 -72,0 z" />
  </g>
  <g
     style="fill:#ffffff"
     id="circle_tb"
     transform="matrix(0,1,-1,0,1308.3622,256)">
    <use
       xlink:href="#rect3178"
       height="640"
       width="640"
       y="0"
       x="0"
       style="fill:#ffffff"
       id="use3292"
       transform="translate(256,540.3622)" />
    <path
       inkscape:connector-curvature="0"
       style="fill:#ffffff;fill-opacity:1;stroke:none"
       id="path3294"
       transform="translate(0,412.36218)"
       d="m 141.4375,152.75 c -17.9084,23.01959 -17.9084,55.41791 0,78.4375 L 152.84375,219.75 c -11.82881,-16.59753 -11.82882,-38.99622 0,-55.59375 L 141.4375,152.75 z m 101.0625,0 -11.40625,11.40625 c 11.82881,16.59753 11.82882,38.99622 0,55.59375 L 242.5,231.1875 c 17.9084,-23.01959 17.9084,-55.41791 0,-78.4375 z" />
  </g>
  <g
     style="fill:#ffffff"
     id="plus_tb"
     transform="matrix(0,1,-1,0,668.36218,-512)">
    <use
       xlink:href="#rect3178"
       height="640"
       width="640"
       y="0"
       x="0"
       style="fill:#ffffff"
       id="use3306"
       transform="translate(640,412.36218)" />
    <path
       inkscape:connector-curvature="0"
       style="fill:#ffffff;fill-opacity:1;stroke:none"
       id="path3308"
       transform="translate(0,412.36218)"
       d="m 512,56 0,16 40,0 0,-16 z m 88,0 0,16 40,0 0,-16 z" />
  </g>
  <g
     style="fill:#ffffff"
     id="plus_lr"
     transform="translate(128,99.63782)">
    <use
       xlink:href="#rect3178"
       height="640"
       width="640"
       y="0"
       x="0"
       style="fill:#ffffff"
       id="use3312"
       transform="translate(640,412.36218)" />
    <path
       inkscape:connector-curvature="0"
       style="fill:#ffffff;fill-opacity:1;stroke:none"
       id="path3314"
       transform="translate(0,412.36218)"
       d="m 512,56 0,16 40,0 0,-16 z m 88,0 0,16 40,0 0,-16 z" />
  </g>
</svg>
